<?xml version="1.0" encoding="UTF-8"?> <svg xmlns="http://www.w3.org/2000/svg" xmlns:xlink="http://www.w3.org/1999/xlink" width="96px" height="96px" viewBox="0 0 96 96"><g id="bubble-chat-favorite-heart-3" stroke="none" stroke-width="1" fill="none" fill-rule="evenodd"><g><g  transform="translate(2.000000, 6.000000)" stroke-linecap="round" stroke-linejoin="round" stroke-width="3"><g id="Outline_Icons"><g ><path d="M74.004,80 C80.688,75.144 92,64.884 92,57.212 C92,50.992 87.468,47.276 83.088,47.276 C78.216,47.276 76.404,50.636 74,54.608 C71.592,50.636 69.78,47.276 64.912,47.276 C60.532,47.276 56,50.996 56,57.212 C56,64.884 67.312,75.144 74.004,80 Z"  stroke="#FFFFFF"></path><path d="M46,54 L44,54 L28,70 L28,54 L26,54 C11.7,54 0,42.3 0,28 C0,13.7 11.7,0 26,0 L58,0 C72.3,0 84,13.7 84,28 C84,31.54 83.28,34.916 81.984,38"  stroke="#4EC9F5"></path></g></g></g><g ></g></g></g></svg>