<?xml version="1.0" encoding="UTF-8"?> <svg xmlns="http://www.w3.org/2000/svg" xmlns:xlink="http://www.w3.org/1999/xlink" width="96px" height="96px" viewBox="0 0 96 96"><g id="clock-headphones" stroke="none" stroke-width="1" fill="none" fill-rule="evenodd" stroke-linecap="round" stroke-linejoin="round"><path d="M19,31.9947865 C23.3690584,20.9160693 34.9202792,13 48.4833227,13 C62.0106118,13 72.6047643,20.966901 77,32" id="Stroke-1" stroke="#4EC9F5" stroke-width="3"></path><path d="M41,77 C30.7335829,74.9004754 22.5188273,67.9172742 19,59" id="Stroke-3" stroke="#4EC9F5" stroke-width="3"></path><path d="M30,44.5 C30,34.2829807 38.2829807,26 48.5,26 C58.7170193,26 67,34.2829807 67,44.5 C67,54.7170193 58.7170193,63 48.5,63 C38.2829807,63 30,54.7170193 30,44.5 Z" id="Stroke-5" stroke="#FFFFFF" stroke-width="3"></path><path d="M41,77.4996798 C41,73.9098074 43.9104478,71 47.5003202,71 C51.0901926,71 54,73.9098074 54,77.4996798 C54,81.0895522 51.0901926,84 47.5003202,84 C43.9104478,84 41,81.0895522 41,77.4996798 Z" id="Stroke-7" stroke="#4EC9F5" stroke-width="3"></path><polyline id="Stroke-9" stroke="#FFFFFF" stroke-width="3" points="48 35 48 44 40 44"></polyline><path d="M19,59 C-1.03370044,57.2024474 -0.966271146,34.2735243 19,32 L19,59 Z" id="Stroke-11" stroke="#4EC9F5" stroke-width="3"></path><path d="M77.9776754,32.1057012 C77.6517836,32.0708894 77.3258918,32.0354447 77,32 L77,59 C95.9756708,56.8385063 97.652901,34.598856 77.9776754,32.1057012" id="Stroke-13" stroke="#4EC9F5" stroke-width="3"></path></g></svg>