<?xml version="1.0" encoding="UTF-8"?> <svg xmlns="http://www.w3.org/2000/svg" viewBox="0 0 112 112"><g id="e2ad8e96-4d11-4c29-848b-8b87512c4a4e" data-name="Layer 2"><g id="ad92e8a9-7bb9-49fa-b484-7b6255ae1791" data-name="Layer 1"><rect width="112" height="112" fill="none"></rect><g><path d="M39.891,34.774a2.28,2.28,0,0,1-.451-.76c-.5-3.226-.406-4.731.451-4.731a109.329,109.329,0,0,0,15.838,1.161,114.16,114.16,0,0,0,16.248-1.161c.677,0,1.133,1.558.554,4.731a2.015,2.015,0,0,1-.554.76,60.336,60.336,0,0,1,3.393,6.308c4.875,9.947,3.463,40.281-.521,44.591-6.032,6.526-31.86,6.336-37.83,0-3.941-4.183-5.1-34.225-.526-44.543A31.89,31.89,0,0,1,39.891,34.774Z" fill="#00a9e5" fill-rule="evenodd"></path><rect x="38.551" y="24.718" width="35.021" height="5.846" fill="#065a7d"></rect><ellipse cx="56.05" cy="30.553" rx="17.522" ry="3.215" fill="#065a7d"></ellipse><ellipse cx="56.05" cy="24.718" rx="17.522" ry="3.215" fill="#006b94"></ellipse><rect x="44.969" y="23.988" width="22.163" height="1.459" fill="#063c4c"></rect><g><g><ellipse cx="49.162" cy="80.671" rx="9.382" ry="1.876" fill="#f5911f"></ellipse><rect x="39.78" y="78.02" width="18.763" height="2.651" fill="#f5911f"></rect><ellipse cx="49.162" cy="78.02" rx="9.382" ry="1.876" fill="#f5ac1f"></ellipse></g><g><ellipse cx="49.162" cy="77.357" rx="9.382" ry="1.876" fill="#f5911f"></ellipse><rect x="39.78" y="74.706" width="18.763" height="2.651" fill="#f5911f"></rect><ellipse cx="49.162" cy="74.706" rx="9.382" ry="1.876" fill="#f5ac1f"></ellipse></g><g><ellipse cx="50.391" cy="73.931" rx="9.382" ry="1.876" fill="#f5911f"></ellipse><rect x="41.01" y="71.279" width="18.763" height="2.651" fill="#f5911f"></rect><ellipse cx="50.391" cy="71.279" rx="9.382" ry="1.876" fill="#f5ac1f"></ellipse></g><g><ellipse cx="49.162" cy="70.504" rx="9.382" ry="1.876" fill="#f5911f"></ellipse><rect x="39.78" y="67.853" width="18.763" height="2.651" fill="#f5911f"></rect><ellipse cx="49.162" cy="67.853" rx="9.382" ry="1.876" fill="#f5ac1f"></ellipse></g><g><ellipse cx="49.162" cy="67.078" rx="9.382" ry="1.876" fill="#f5911f"></ellipse><rect x="39.78" y="64.427" width="18.763" height="2.651" fill="#f5911f"></rect><ellipse cx="49.162" cy="64.427" rx="9.382" ry="1.876" fill="#f5ac1f"></ellipse></g><g><ellipse cx="47.933" cy="63.652" rx="9.382" ry="1.876" fill="#f5911f"></ellipse><rect x="38.551" y="61" width="18.763" height="2.651" fill="#f5911f"></rect><ellipse cx="47.933" cy="61" rx="9.382" ry="1.876" fill="#f5ac1f"></ellipse></g><g><ellipse cx="49.162" cy="60.225" rx="9.382" ry="1.876" fill="#f5911f"></ellipse><rect x="39.78" y="57.574" width="18.763" height="2.651" fill="#f5911f"></rect><ellipse cx="49.162" cy="57.574" rx="9.382" ry="1.876" fill="#f5ac1f"></ellipse></g></g><g><g><ellipse cx="60.621" cy="83.897" rx="10.22" ry="2.044" fill="#f5911f"></ellipse><rect x="50.401" y="81.009" width="20.44" height="2.888" fill="#f5911f"></rect><ellipse cx="60.621" cy="81.009" rx="10.22" ry="2.044" fill="#f5ac1f"></ellipse></g><g><ellipse cx="60.621" cy="80.287" rx="10.22" ry="2.044" fill="#f5911f"></ellipse><rect x="50.401" y="77.398" width="20.44" height="2.888" fill="#f5911f"></rect><ellipse cx="60.621" cy="77.398" rx="10.22" ry="2.044" fill="#f5ac1f"></ellipse></g><g><ellipse cx="60.621" cy="76.676" rx="10.22" ry="2.044" fill="#f5911f"></ellipse><rect x="50.401" y="73.788" width="20.44" height="2.888" fill="#f5911f"></rect><ellipse cx="60.621" cy="73.788" rx="10.22" ry="2.044" fill="#f5ac1f"></ellipse></g><g><ellipse cx="59.282" cy="73.066" rx="10.22" ry="2.044" fill="#f5911f"></ellipse><rect x="49.061" y="70.178" width="20.44" height="2.888" fill="#f5911f"></rect><ellipse cx="59.282" cy="70.178" rx="10.22" ry="2.044" fill="#f5ac1f"></ellipse></g><g><ellipse cx="60.621" cy="69.578" rx="10.22" ry="2.044" fill="#f5911f"></ellipse><rect x="50.401" y="66.689" width="20.44" height="2.888" fill="#f5911f"></rect><ellipse cx="60.621" cy="66.689" rx="10.22" ry="2.044" fill="#f5ac1f"></ellipse></g></g></g></g></g></svg> 