<?xml version="1.0" encoding="UTF-8"?> <svg xmlns="http://www.w3.org/2000/svg" viewBox="0 0 112 112"><g id="a9918783-37ca-491c-a36d-8061cc175819" data-name="Layer 2"><g id="e0b4fba6-670a-4f8f-ad8c-a138faab9cc0" data-name="Layer 1"><rect width="112" height="112" fill="none"></rect><g id="adcde398-b039-47d3-94d4-dce108b6dff8" data-name="V2"><g id="b96518ae-e218-41c5-b2ce-a553b501d0a8" data-name="icon-mortgage"><path id="a15f22e6-350f-4619-928a-99f3309c6839" data-name="Path" d="M29.047,27.168v17.52h0l8.625-5.178V27.168a1.617,1.617,0,0,0-1.617-1.617H30.664A1.617,1.617,0,0,0,29.047,27.168Z" fill="#065a7d"></path><polygon id="aaf1f43a-3343-480e-914e-712958aecba9" data-name="Path" points="83.223 43.236 83.223 84.578 29.047 84.578 29.047 43.236 56.14 26.629 83.223 43.236" fill="#00a9e5"></polygon><path id="e572f919-afc1-43c2-bd8e-c348329da318" data-name="Path" d="M87,49a3.489,3.489,0,0,1-1.821-.513L56.006,30.682,26.817,48.487a3.482,3.482,0,1,1-3.648-5.932L54.183,23.637a3.506,3.506,0,0,1,3.648,0l31,18.918A3.478,3.478,0,0,1,87,49Z" fill="#006b94"></path><path id="a9ca2c24-a2da-4a41-94f7-13e317c86e8d" data-name="Path" d="M63.008,65.181v19.4H48.992v-19.4A7.019,7.019,0,0,1,56,58.164h.011A7.011,7.011,0,0,1,63.008,65.181Z" fill="#006b94"></path><path id="b9cd8b77-c9b0-4064-93ff-1fef602a7ea8" data-name="Rectangle" d="M88.479,84.578A2.021,2.021,0,0,1,90.5,86.6h0a2.021,2.021,0,0,1-2.021,2.021H23.521A2.021,2.021,0,0,1,21.5,86.6h0a2.021,2.021,0,0,1,2.021-2.022" fill="#065a7d" fill-rule="evenodd"></path><path id="b664c71f-b36b-46f5-990d-3cdcd412e266" data-name="Path" d="M78.1,54.11V70.293H68.4V54.11a4.852,4.852,0,1,1,9.7,0Z" fill="#4ec9f5"></path><path id="b3d9124a-f122-4ccf-ade1-2025e8c2dd4c" data-name="Path" d="M43.6,54.11V70.293H33.9V54.11a4.852,4.852,0,1,1,9.7,0Z" fill="#4ec9f5"></path><path id="a85c2207-be40-459e-85c1-3e000e472d9e" data-name="Path" d="M61.391,44.418A5.391,5.391,0,1,1,56,39.028,5.386,5.386,0,0,1,61.391,44.418Z" fill="#4ec9f5"></path><path id="efdd467c-3353-46b9-bf04-485a1b248996" data-name="Path-Copy-5" d="M61.391,74.067a1.213,1.213,0,1,1-1.213-1.213A1.212,1.212,0,0,1,61.391,74.067Z" fill="#f5ac1f"></path></g></g></g></g></svg> 