<?xml version="1.0" encoding="UTF-8"?> <svg xmlns="http://www.w3.org/2000/svg" xmlns:xlink="http://www.w3.org/1999/xlink" viewBox="0 0 112 112"><defs><clipPath id="ba85f103-2001-4c83-9e93-902d6555ad48"><path d="M91.012,44.2a46.993,46.993,0,0,0-4.836,0,1.779,1.779,0,0,1-2.094-1.447c-.881-2.695-1.861-5.362-2.9-8a11.061,11.061,0,0,0-10.9-7.41q-14.225,0-28.447,0A11.128,11.128,0,0,0,30.724,35c-.982,2.593-1.949,5.194-2.825,7.823A1.693,1.693,0,0,1,25.947,44.2c-1.673-.08-3.354-.032-5.03,0-2.214.039-2.07,1.623-2.082,3.159-.012,1.5.365,2.546,2.149,2.471,1.15-.048,2.3-.009,4.028-.009-3.054,3.817-2.992,7.889-2.973,11.972.033,7.16.009,14.32.009,21.48,0,5.2.122,5.319,5.284,5.226,2.038-.037,2.739-.722,2.783-2.818.035-1.655.007-3.312.007-5.05H81.88c0,1.743-.024,3.343.005,4.943.041,2.216.728,2.895,2.882,2.924.194,0,.387,0,.581,0,4.359,0,4.615-.245,4.614-4.541q0-10.254-.007-20.509c0-4.621.459-9.324-2.883-13.628,1.562,0,2.7-.049,3.825.012,1.711.093,2.257-.779,2.267-2.358C93.182,44.851,92.9,44.292,91.012,44.2ZM65.739,74.912c-6.515.026-13.029-.014-19.544.025-1.988.012-2.307-1.107-2.292-2.756.014-1.632.1-3.007,2.267-2.981,3.289.04,6.579.011,9.869.011,3.225,0,6.45-.024,9.675.009,2.026.021,2.363.466,2.367,2.836C68.084,74.446,67.751,74.905,65.739,74.912Z" fill="#00a9e5"></path></clipPath></defs><g id="fb484c0a-2598-4f23-a53d-d6a0b295925d" data-name="Layer 2"><g id="a1abfc10-58bc-4264-beb0-6dcd12fac5e9" data-name="Layer 1"><rect width="112" height="112" fill="none"></rect><g><path d="M81.121,36.443a24.164,24.164,0,0,0-2.386-5.55c-3.087-4.814-4.777-7.4-9.485-7.405q-13.028,0-26.055,0c-4.9,0-7.38,2.595-10.181,7.656a29.442,29.442,0,0,0-1.789,5.3Z" fill="#4ec9f5"></path><path d="M65.085,71.057c-5.967.026-11.934-.014-17.9.025-1.82.012-2.113-1.107-2.1-2.756.013-1.632.091-3.007,2.077-2.981,3.012.04,6.026.011,9.039.011,2.954,0,5.908-.025,8.861.009,1.856.021,2.165.466,2.168,2.836C67.233,70.591,66.928,71.049,65.085,71.057Z" fill="#f5911f"></path><g><path d="M91.012,44.2a46.993,46.993,0,0,0-4.836,0,1.779,1.779,0,0,1-2.094-1.447c-.881-2.695-1.861-5.362-2.9-8a11.061,11.061,0,0,0-10.9-7.41q-14.225,0-28.447,0A11.128,11.128,0,0,0,30.724,35c-.982,2.593-1.949,5.194-2.825,7.823A1.693,1.693,0,0,1,25.947,44.2c-1.673-.08-3.354-.032-5.03,0-2.214.039-2.07,1.623-2.082,3.159-.012,1.5.365,2.546,2.149,2.471,1.15-.048,2.3-.009,4.028-.009-3.054,3.817-2.992,7.889-2.973,11.972.033,7.16.009,14.32.009,21.48,0,5.2.122,5.319,5.284,5.226,2.038-.037,2.739-.722,2.783-2.818.035-1.655.007-3.312.007-5.05H81.88c0,1.743-.024,3.343.005,4.943.041,2.216.728,2.895,2.882,2.924.194,0,.387,0,.581,0,4.359,0,4.615-.245,4.614-4.541q0-10.254-.007-20.509c0-4.621.459-9.324-2.883-13.628,1.562,0,2.7-.049,3.825.012,1.711.093,2.257-.779,2.267-2.358C93.182,44.851,92.9,44.292,91.012,44.2ZM65.739,74.912c-6.515.026-13.029-.014-19.544.025-1.988.012-2.307-1.107-2.292-2.756.014-1.632.1-3.007,2.267-2.981,3.289.04,6.579.011,9.869.011,3.225,0,6.45-.024,9.675.009,2.026.021,2.363.466,2.367,2.836C68.084,74.446,67.751,74.905,65.739,74.912Z" fill="#00a9e5"></path><g clip-path="url(#ba85f103-2001-4c83-9e93-902d6555ad48)"><rect x="22.125" y="80.629" width="68.45" height="15.385" fill="#006b94"></rect></g></g><path d="M31.242,57.855l-.934.005a4.663,4.663,0,0,0-4.627,4.671h0a4.664,4.664,0,0,0,4.672,4.626l6.242-.03a4.663,4.663,0,0,0,4.2-2.721Z" fill="#f5ac1f"></path><path d="M80.781,57.855l.934.005a4.661,4.661,0,0,1,4.626,4.671h0a4.662,4.662,0,0,1-4.671,4.626l-6.242-.03a4.665,4.665,0,0,1-4.2-2.721Z" fill="#f5ac1f"></path><path d="M73.353,48.63H38.164c-4.113,0-6.468-2.75-5.338-5.824l2.586-7.039c.813-2.214,3.97-3.9,7.073-3.9H69.032c3.1,0,6.26,1.684,7.073,3.9l2.586,7.039C79.821,45.88,77.466,48.63,73.353,48.63Z" fill="#4ec9f5"></path><path d="M65.739,74.912c-6.515.026-13.029-.014-19.544.025-1.988.012-2.307-1.107-2.292-2.756.014-1.632.1-3.007,2.267-2.981,3.289.04,6.579.011,9.869.011,3.225,0,6.45-.024,9.675.009,2.026.021,2.363.466,2.367,2.836C68.084,74.446,67.751,74.905,65.739,74.912Z" fill="#4ec9f5"></path></g></g></g></svg>