<?xml version="1.0" encoding="UTF-8"?>
<svg xmlns="http://www.w3.org/2000/svg" xmlns:xlink="http://www.w3.org/1999/xlink" viewBox="0 0 112 112">
  <defs>
    <clipPath id="f01686fe-5099-48be-8e08-b64bc90f56fe">
      <path
        d="M103.777,86.32H8.224a2.151,2.151,0,0,1-1.7-3.471l9.887-12.712a2.151,2.151,0,0,1,1.7-.83H95.3a2.149,2.149,0,0,1,1.789.957l8.475,12.712A2.151,2.151,0,0,1,103.777,86.32Z"
        fill="#4ec9f5"></path>
    </clipPath>
  </defs>
<!--  <rect width="112" height="112" fill="red"></rect>-->
  <g id="b0b008f6-e3e6-41cd-9459-c3c2890956f1" data-name="Layer 2">
    <g id="bdec94aa-32b7-4105-a047-4ebe24fc6ee2" data-name="Layer 1" class="icon-house-wrapper">
      <g>
        <path
          d="M90.929,30.762l-3.276-3.829c-.881-1.283-2.338-1.252-3.894-1.252H26.629c-1.708,0-3.283.124-4.119,1.613l-2.5,3.648c-.4.716.617,1.5,1.439,1.5l67.946,0C90.263,32.446,91.419,31.475,90.929,30.762Z"
          fill="#0086af"></path>
        <rect x="19.139" y="28.664" width="72.778" height="31.19" rx="5.179" fill="#006b94"></rect>
        <g>
<!--          <path-->
<!--            d="M103.777,86.32H8.224a2.151,2.151,0,0,1-1.7-3.471l9.887-12.712a2.151,2.151,0,0,1,1.7-.83H95.3a2.149,2.149,0,0,1,1.789.957l8.475,12.712A2.151,2.151,0,0,1,103.777,86.32Z"-->
<!--            fill="#4ec9f5"></path>-->
<!--          <g clip-path="url(#f01686fe-5099-48be-8e08-b64bc90f56fe)">-->
<!--            <path-->
<!--              d="M103.777,76.868H8.224a2.151,2.151,0,0,1-1.7-3.471l9.887-12.712a2.151,2.151,0,0,1,1.7-.83H95.3a2.147,2.147,0,0,1,1.789.958l8.475,12.711A2.151,2.151,0,0,1,103.777,76.868Z"-->
<!--              fill="#4ec9f5"></path>-->
<!--          </g>-->
        </g>
        <path
          d="M23.435,78.286h0a1.551,1.551,0,0,1-1.547-1.547l-.773-5.413c0-.851,1.469-1.547,2.32-1.547h0c.85,0,2.32.7,2.32,1.547l-.774,5.413A1.551,1.551,0,0,1,23.435,78.286Z"
          fill="#f5ac1f"></path>
        <path
          d="M89.6,78.286h0a1.551,1.551,0,0,1-1.546-1.547l-.774-5.413c0-.851,1.47-1.547,2.32-1.547h0c.851,0,2.32.7,2.32,1.547l-.773,5.413A1.551,1.551,0,0,1,89.6,78.286Z"
          fill="#f5ac1f"></path>
        <path
          d="M96.368,38.172l-6.156-1.049c-1.517-.192-3.86,1.366-4.052,2.883L82.776,63.849H29.492L26.108,40.006c-.192-1.517-2.535-3.075-4.052-2.883l-7.1,1.049c-1.518.192-2.13,2.535-1.938,4.052l3.839,26.2c.192,1.517.172,2.6,1.69,2.411H91.832a2.79,2.79,0,0,0,3.107-2.411l4.312-26.195C99.443,40.707,97.885,38.364,96.368,38.172Z"
          fill="#0086af"></path>
        <rect x="23.628" y="58.673" width="65.925" height="5.907" rx="2.954" fill="#065a7d"></rect>
        <g>
          <rect x="23.628" y="53.002" width="65.925" height="5.907" rx="2.954" fill="#006b94"></rect>
          <path
            d="M86.6,59.91H26.582a3.954,3.954,0,0,1,0-7.908H86.6a3.954,3.954,0,1,1,0,7.908ZM26.582,54a1.954,1.954,0,0,0,0,3.908H86.6A1.954,1.954,0,1,0,86.6,54Z"
            fill="#065a7d"></path>
        </g>
        <g>
          <rect x="71.544" y="39.453" width="15.668" height="15.668" rx="4"
                transform="translate(19.37 117.544) rotate(-80.282)" fill="#00a9e5"></rect>
          <rect x="24.931" y="39.453" width="15.668" height="15.668" rx="4"
                transform="translate(-9.977 8.781) rotate(-13.267)" fill="#00a9e5"></rect>
        </g>
        <path
          d="M96.841,40.063l-5.684-1.05a2.79,2.79,0,0,0-3.107,2.411L84.667,63.849H27.6L24.218,41.424a2.79,2.79,0,0,0-3.107-2.411l-5.684,1.05a2.788,2.788,0,0,0-2.41,3.107l3.367,26.667a2.788,2.788,0,0,0,3.107,2.41H92.777a2.789,2.789,0,0,0,3.107-2.41L99.251,43.17A2.788,2.788,0,0,0,96.841,40.063Z"
          fill="#006b94"></path>
        <path d="M55.071,28.492,55,53.073a1,1,0,0,0,1,1h0a1,1,0,0,0,1-1l.071-24.587Z" fill="#065a7d"></path>
      </g>
    </g>
  </g>
</svg>