<?xml version="1.0" encoding="UTF-8"?> <svg xmlns="http://www.w3.org/2000/svg" xmlns:xlink="http://www.w3.org/1999/xlink" viewBox="0 0 112 112"><defs><clipPath id="f83bbdd8-68aa-47c0-a3c9-3df9965b3a15"><path d="M68.16,36.879c-1.374.155-2.646-1.122-2.842-2.852s.785-2.144,2.158-2.3,6.1-.388,6.3,1.343S69.533,36.723,68.16,36.879Z" fill="#f5ac1f"></path></clipPath></defs><g id="ac668be1-19b0-477b-873f-1889a0fb3953" data-name="Layer 2"><g id="bf3df9db-c026-41b7-8eba-5951a2bc214c" data-name="Layer 1"><rect width="112" height="112" fill="none"></rect><g><rect x="50.54" y="94.545" width="3" height="4.224" rx="1.056" fill="#065a7d"></rect><path d="M83.72,94.545c-.825,0-1.5.476-1.5,1.056v2.112c0,.581.675,1.056,1.5,1.056s1.5-.475,1.5-1.056V95.6C85.22,95.021,84.545,94.545,83.72,94.545Z" fill="#065a7d"></path><g><rect x="46.76" y="34.484" width="42.24" height="55.706" rx="3.696" fill="#0086af"></rect><rect x="46.76" y="39.897" width="42.24" height="55.706" rx="3.696" fill="#006b94"></rect></g><path d="M28.28,94.545c-.825,0-1.5.476-1.5,1.056v2.112c0,.581.675,1.056,1.5,1.056s1.5-.475,1.5-1.056V95.6C29.78,95.021,29.105,94.545,28.28,94.545Z" fill="#065a7d"></path><rect x="23" y="55.471" width="34.848" height="36.764" rx="3.696" fill="#4ec9f5"></rect><rect x="23" y="60.953" width="34.848" height="34.65" rx="3.696" fill="#00a9e5"></rect><path d="M75.271,13.231H60.489a1.057,1.057,0,1,0,0,2.114H75.271a1.057,1.057,0,1,0,0-2.114Z" fill="#065a7d"></path><rect x="60.752" y="15.371" width="1.584" height="22.149" fill="#065a7d"></rect><rect x="73.689" y="14.552" width="1.584" height="22.969" fill="#065a7d"></rect><path d="M47.663,43.854H33.185a1.057,1.057,0,0,0,0,2.114H47.663a1.057,1.057,0,0,0,0-2.114Z" fill="#065a7d"></path><rect x="33.296" y="45.408" width="1.584" height="13.367" fill="#065a7d"></rect><rect x="46.233" y="44.913" width="1.584" height="13.862" fill="#065a7d"></rect><g><path d="M68.056,33.516a2.04,2.04,0,0,1,.868-3.986c1.1.24,4.589,1.934,4.349,3.035S69.157,33.756,68.056,33.516Z" fill="#f5911f"></path><g><path d="M68.16,36.879c-1.374.155-2.646-1.122-2.842-2.852s.785-2.144,2.158-2.3,6.1-.388,6.3,1.343S69.533,36.723,68.16,36.879Z" fill="#f5ac1f"></path><g clip-path="url(#f83bbdd8-68aa-47c0-a3c9-3df9965b3a15)"><path d="M68.829,34.657c-1.089.123-2.037-.351-2.117-1.06s.737-1.383,1.827-1.507,4.8.039,4.878.748S69.918,34.533,68.829,34.657Z" fill="#f5911f"></path></g></g><rect x="73.329" y="32.355" width="2.112" height="1.726" rx="0.25" fill="#f5911f"></rect><rect x="66.886" y="38.844" width="12.853" height="2.354" rx="0.528" transform="translate(25.616 108.588) rotate(-83.807)" fill="#f5911f"></rect><rect x="74.707" y="33.583" width="2.354" height="16.721" rx="0.528" transform="translate(-5.575 12.243) rotate(-8.899)" fill="#f5ac1f"></rect></g></g></g></g></svg>