<?xml version="1.0" encoding="UTF-8"?> <svg xmlns="http://www.w3.org/2000/svg" xmlns:xlink="http://www.w3.org/1999/xlink" width="96px" height="96px" viewBox="0 0 96 96"><g id="mobile-phone-flash" stroke="none" stroke-width="1" fill="none" fill-rule="evenodd"><g><g  transform="translate(22.000000, 2.000000)" stroke-linecap="round" stroke-linejoin="round" stroke-width="3"><g id="New_icons_1_"><g ><g ><path d="M52,84 C52,88.416 48.416,92 44,92 L8,92 C3.584,92 0,88.416 0,84 L0,8 C0,3.58 3.584,0 8,0 L44,0 C48.416,0 52,3.58 52,8 L52,84 Z" stroke="#4EC9F5"></path><path d="M52,76 L0,76" stroke="#4EC9F5"></path><path d="M52,16 L0,16" stroke="#4EC9F5"></path><path d="M16,8 L36,8" stroke="#FFFFFF"></path><path d="M26,86 C24.896,86 24,85.1 24,84 C24,82.892 24.896,82 26,82 C27.104,82 28,82.892 28,84 C28,85.1 27.104,86 26,86 Z" stroke="#FFFFFF"></path></g><polygon  stroke="#FFFFFF" transform="translate(26.000000, 46.000000) rotate(20.000000) translate(-26.000000, -46.000000) " points="27.4285714 27 16 49.8 24.5714286 49.8 24.5714286 65 36 42.2 27.4285714 42.2"></polygon></g></g></g><g ><rect id="Rectangle" x="0" y="0" width="96" height="96"></rect></g></g></g></svg>