<svg class="svg-icon" style="width: 1em; height: 1em;vertical-align: middle;fill: currentColor;overflow: hidden;" viewBox="0 0 1024 1024" version="1.1" xmlns="http://www.w3.org/2000/svg"><path d="M457.378909 93.090909L433.338182 213.434182l-13.195637 4.119273c-17.733818 5.515636-34.909091 12.660364-51.339636 21.271272l-12.218182 6.446546-102.167272-68.096-77.21891 77.242182 68.096 102.144-6.446545 12.218181c-8.610909 16.430545-15.755636 33.605818-21.271273 51.339637l-4.119272 13.195636L93.090909 457.378909v109.242182l120.343273 24.064 4.119273 13.195636c5.515636 17.733818 12.660364 34.909091 21.271272 51.339637l6.446546 12.218181-68.096 102.167273 77.242182 77.218909 102.144-68.096 12.218181 6.446546c16.430545 8.610909 33.605818 15.755636 51.339637 21.271272l13.195636 4.119273L457.378909 930.909091h109.242182l24.064-120.343273 13.195636-4.119273c17.733818-5.515636 34.909091-12.660364 51.339637-21.271272l12.218181-6.446546 102.167273 68.096 77.218909-77.242182-68.096-102.144 6.446546-12.218181c8.610909-16.430545 15.755636-33.605818 21.271272-51.339637l4.119273-13.195636L930.909091 566.621091v-109.242182l-120.343273-24.064-4.119273-13.195636c-5.515636-17.733818-12.660364-34.909091-21.271272-51.339637l-6.446546-12.218181 68.096-102.167273-77.242182-77.218909-102.144 68.096-12.218181-6.446546a306.292364 306.292364 0 0 0-51.339637-21.271272l-13.195636-4.119273L566.621091 93.090909h-109.242182z m-64.349091 84.433455L419.234909 46.545455h185.530182l26.205091 130.978909c11.380364 4.049455 22.528 8.680727 33.396363 13.847272l111.150546-74.100363 131.211636 131.211636-74.100363 111.150546c5.166545 10.868364 9.797818 22.016 13.847272 33.396363L977.454545 419.234909v185.530182l-130.978909 26.205091a352.814545 352.814545 0 0 1-13.847272 33.396363l74.100363 111.150546-131.211636 131.211636-111.150546-74.100363a352.814545 352.814545 0 0 1-33.396363 13.847272L604.765091 977.454545h-185.530182l-26.205091-130.978909a352.814545 352.814545 0 0 1-33.396363-13.847272l-111.150546 74.100363-131.211636-131.211636 74.100363-111.150546a352.814545 352.814545 0 0 1-13.847272-33.396363L46.545455 604.765091v-185.530182l130.978909-26.205091c4.049455-11.380364 8.680727-22.528 13.847272-33.396363L117.294545 248.482909l131.211637-131.211636 111.150545 74.100363a352.814545 352.814545 0 0 1 33.396364-13.847272zM512 674.909091a162.909091 162.909091 0 1 1 0-325.818182 162.909091 162.909091 0 0 1 0 325.818182z m0-46.545455a116.363636 116.363636 0 1 0 0-232.727272 116.363636 116.363636 0 0 0 0 232.727272z" fill="#6D7793" /></svg>