<?xml version="1.0" encoding="UTF-8"?> <svg xmlns="http://www.w3.org/2000/svg" viewBox="0 0 223.006 87.592"><g id="e0c83a33-f9dc-4d51-ba30-964c1854109e" data-name="Layer 2"><g id="fd88544b-738a-4ff5-afb4-ad70d8ba5db0" data-name="Layer 1"><path d="M212.392,0a10.433,10.433,0,0,1,10.614,10.614,10.614,10.614,0,0,1-21.227,0A10.433,10.433,0,0,1,212.392,0" fill="#f59100"></path><path d="M222.552,34.959a10.16,10.16,0,1,0-20.32,0V50.338c-2.593-14.357-15.3-25.643-30.058-25.643a28.928,28.928,0,0,0-10.227,1.88c0-9.04,0-16.39,0-16.4a10.16,10.16,0,1,0-20.32,0c0,.066,0,15.8,0,29.665a30.37,30.37,0,0,0-52.672-.085V10.179a10.161,10.161,0,1,0-20.321,0c0,.122-.019,50.684-.019,50.928a7.01,7.01,0,1,1-13.987,0V10.145a10.158,10.158,0,0,0-20.316-.108v51.07a7.253,7.253,0,0,1-6.993,7.487,7.253,7.253,0,0,1-6.994-7.487V10.179a10.16,10.16,0,1,0-20.32,0C0,10.3.02,62.051.02,62.051c0,14,8.631,25.541,26.592,25.541,6.882,0,14-2.332,17.845-7.93,3.849,5.6,11.057,7.93,17.938,7.93,14.318,0,22.677-7.339,25.482-17.4,5.251,10.134,15.8,17.128,27.387,17.128,12.64,0,24.042-8.321,28.681-19.965,4.637,11.251,15.694,19.393,28.229,19.393,14.758,0,27.466-11.287,30.058-25.645,0,7.947,0,14.623,0,14.629a10.161,10.161,0,1,0,20.321,0C222.554,75.69,222.552,34.973,222.552,34.959Zm-107.26,32.28h-.057c-5.941,0-10.6-4.966-10.6-11.305a12.145,12.145,0,0,1,.087-1.433l.016-.051v-.088c.713-5.634,5.107-9.719,10.471-9.731h.079c5.941,0,10.6,4.965,10.6,11.3S121.233,67.239,115.292,67.239Zm56.882-.215h-.057c-5.942,0-10.6-4.966-10.6-11.306a12.339,12.339,0,0,1,.086-1.432l.017-.051v-.088c.713-5.634,5.107-9.719,10.471-9.731h.079c5.94,0,10.6,4.965,10.6,11.3S178.114,67.024,172.174,67.024Z" fill="#006b94"></path></g></g></svg>